<svg xmlns="http://www.w3.org/2000/svg" xml:space="preserve" width="76px" height="76px" version="1.0" shape-rendering="geometricPrecision" text-rendering="geometricPrecision" image-rendering="optimizeQuality" fill-rule="evenodd" clip-rule="evenodd"
viewBox="0 0 7600 7600">
 <g id="Layer_x0020_1">
  <metadata id="CorelCorpID_0Corel-Layer"/>
  <g id="_827884176">
   <rect fill="none" width="7600" height="7600"/>
   <path fill="none" stroke="#781E00" stroke-width="208.349" stroke-linecap="round" stroke-linejoin="round" d="M2441 2390l-517 -537m-24 2422l-786 196m4046 738l561 581m-3616 -1012l-1099 634m1816 -3310l-634 -1099m2593 1099l634 -1099m-1074 4678l223 778m-2459 -3641l-1099 -634m836 1614l-1269 0m1842 1385l-569 569m1439 -3844l-204 -750m719 682l0 -1269m1958 3227l1268 0m-1531 -979l1098 -634m-906 2134l765 211m-2654 1227l0 1268m-1891 -3738l-739 -200m4327 1690l1098 634m-1815 83l634 1098m-1106 -4686l244 -911m-1262 4694l-212 785m-257 -980l-634 1098m3497 -3334l792 -212m-1290 -634l642 -642"/>
   <circle id="Ellipse_x0020_Outer" fill="#FA920A" stroke="#781E00" stroke-width="199.963" cx="3800" cy="3800" r="1958"/>
   <circle fill="#FFC403" cx="3800" cy="3800" r="1233"/>
  </g>
 </g>
</svg>
