<svg xmlns="http://www.w3.org/2000/svg" xml:space="preserve" width="76px" height="76px" version="1.1" shape-rendering="geometricPrecision" text-rendering="geometricPrecision" image-rendering="optimizeQuality" fill-rule="evenodd" clip-rule="evenodd"
viewBox="0 0 7600 7600">
 <g id="Layer_x0020_2">
  <metadata id="CorelCorpID_0Corel-Layer"/>
  <g id="_824383856">
   <rect fill="none" width="7600" height="7600"/>
   <g>
    <path fill="white" stroke="#781E00" stroke-width="199.963" stroke-linecap="round" stroke-linejoin="round" d="M6430 4324c-171,1194 -1207,2112 -2460,2112 -1373,0 -2485,-1101 -2485,-2460 0,-1163 815,-2137 1910,-2394 -437,375 -714,929 -714,1547 0,1131 926,2048 2069,2048 692,0 1305,-336 1680,-853z"/>
    <polygon fill="#781E00" points="3625,2467 3705,2717 3967,2716 3755,2870 3836,3119 3625,2964 3413,3119 3494,2870 3282,2716 3544,2717 "/>
    <polygon fill="#781E00" points="5665,2118 5823,2608 6338,2607 5921,2909 6081,3398 5665,3095 5249,3398 5409,2909 4992,2607 5507,2608 "/>
    <polygon fill="#781E00" points="5862,758 5942,1007 6204,1007 5992,1160 6074,1409 5862,1255 5650,1409 5732,1160 5520,1007 5782,1007 "/>
    <polygon fill="#781E00" points="1193,1186 1294,1497 1621,1497 1356,1689 1458,2000 1193,1807 928,2000 1030,1689 765,1497 1092,1497 "/>
   </g>
  </g>
 </g>
</svg>
